<svg width="637" height="500" viewBox="0 0 637 191" fill="none" xmlns="http://www.w3.org/2000/svg">
<g filter="url(#filter0_d_16_2)">
<path d="M72.6969 60.5006V89.5915H69.1741V60.5006H72.6969ZM82.6578 76.4665V89.5915H79.3055V67.7733H82.5442V71.1824H82.8283C83.3396 70.0745 84.1161 69.1843 85.1578 68.512C86.1995 67.8302 87.5442 67.4892 89.1919 67.4892C90.6692 67.4892 91.9618 67.7923 93.0697 68.3983C94.1777 68.9949 95.0394 69.904 95.655 71.1256C96.2705 72.3377 96.5783 73.8718 96.5783 75.7279V89.5915H93.226V75.9552C93.226 74.2411 92.7809 72.9059 91.8908 71.9495C91.0006 70.9836 89.779 70.5006 88.226 70.5006C87.1559 70.5006 86.1995 70.7326 85.3567 71.1966C84.5233 71.6607 83.8652 72.3377 83.3822 73.2279C82.8993 74.118 82.6578 75.1976 82.6578 76.4665ZM112.42 67.7733V70.6142H100.659V67.7733H112.42ZM104.181 89.5915V64.762C104.181 63.512 104.475 62.4703 105.062 61.637C105.649 60.8036 106.411 60.1786 107.349 59.762C108.286 59.3453 109.276 59.137 110.318 59.137C111.141 59.137 111.814 59.2033 112.335 59.3358C112.855 59.4684 113.244 59.5915 113.499 59.7052L112.534 62.6029C112.363 62.5461 112.126 62.475 111.823 62.3898C111.53 62.3046 111.141 62.262 110.659 62.262C109.551 62.262 108.75 62.5413 108.258 63.1C107.775 63.6588 107.534 64.4779 107.534 65.5574V89.5915H104.181ZM125.083 90.0461C123.114 90.0461 121.385 89.5773 119.899 88.6398C118.421 87.7023 117.266 86.3908 116.433 84.7052C115.609 83.0196 115.197 81.0499 115.197 78.7961C115.197 76.5233 115.609 74.5394 116.433 72.8444C117.266 71.1493 118.421 69.833 119.899 68.8955C121.385 67.958 123.114 67.4892 125.083 67.4892C127.053 67.4892 128.776 67.958 130.254 68.8955C131.74 69.833 132.896 71.1493 133.72 72.8444C134.553 74.5394 134.97 76.5233 134.97 78.7961C134.97 81.0499 134.553 83.0196 133.72 84.7052C132.896 86.3908 131.74 87.7023 130.254 88.6398C128.776 89.5773 127.053 90.0461 125.083 90.0461ZM125.083 87.0347C126.579 87.0347 127.811 86.6512 128.776 85.8841C129.742 85.1171 130.457 84.1086 130.921 82.8586C131.385 81.6086 131.617 80.2544 131.617 78.7961C131.617 77.3377 131.385 75.9788 130.921 74.7194C130.457 73.4599 129.742 72.4419 128.776 71.6654C127.811 70.8889 126.579 70.5006 125.083 70.5006C123.587 70.5006 122.356 70.8889 121.39 71.6654C120.424 72.4419 119.709 73.4599 119.245 74.7194C118.781 75.9788 118.549 77.3377 118.549 78.7961C118.549 80.2544 118.781 81.6086 119.245 82.8586C119.709 84.1086 120.424 85.1171 121.39 85.8841C122.356 86.6512 123.587 87.0347 125.083 87.0347ZM140.087 89.5915V67.7733H143.325V71.0688H143.553C143.95 69.9892 144.67 69.1133 145.712 68.441C146.753 67.7686 147.928 67.4324 149.235 67.4324C149.481 67.4324 149.788 67.4372 150.158 67.4466C150.527 67.4561 150.806 67.4703 150.996 67.4892V70.8983C150.882 70.8699 150.622 70.8273 150.215 70.7705C149.817 70.7042 149.395 70.6711 148.95 70.6711C147.89 70.6711 146.943 70.8936 146.11 71.3387C145.286 71.7743 144.632 72.3803 144.149 73.1569C143.676 73.9239 143.439 74.7999 143.439 75.7847V89.5915H140.087ZM154.97 89.5915V67.7733H158.208V71.1824H158.492C158.947 70.0177 159.681 69.1133 160.694 68.4694C161.707 67.816 162.924 67.4892 164.345 67.4892C165.784 67.4892 166.982 67.816 167.938 68.4694C168.904 69.1133 169.657 70.0177 170.197 71.1824H170.424C170.983 70.0555 171.821 69.1607 172.938 68.4978C174.056 67.8254 175.396 67.4892 176.958 67.4892C178.909 67.4892 180.505 68.1 181.745 69.3216C182.986 70.5338 183.606 72.423 183.606 74.9892V89.5915H180.254V74.9892C180.254 73.3794 179.813 72.2288 178.933 71.5375C178.052 70.8463 177.015 70.5006 175.822 70.5006C174.288 70.5006 173.099 70.9646 172.257 71.8927C171.414 72.8112 170.992 73.976 170.992 75.387V89.5915H167.583V74.6483C167.583 73.4078 167.181 72.4088 166.376 71.6512C165.571 70.8841 164.534 70.5006 163.265 70.5006C162.394 70.5006 161.579 70.7326 160.822 71.1966C160.074 71.6607 159.468 72.3046 159.004 73.1285C158.549 73.9428 158.322 74.8851 158.322 75.9552V89.5915H154.97ZM196.156 90.1029C194.773 90.1029 193.518 89.8425 192.391 89.3216C191.265 88.7913 190.37 88.029 189.707 87.0347C189.044 86.0309 188.712 84.8188 188.712 83.3983C188.712 82.1483 188.959 81.1351 189.451 80.3586C189.944 79.5726 190.602 78.9571 191.426 78.512C192.249 78.0669 193.159 77.7355 194.153 77.5177C195.157 77.2904 196.165 77.1105 197.178 76.9779C198.504 76.8074 199.579 76.6796 200.403 76.5944C201.236 76.4997 201.842 76.3434 202.221 76.1256C202.609 75.9078 202.803 75.529 202.803 74.9892V74.8756C202.803 73.4741 202.42 72.3851 201.653 71.6086C200.895 70.8321 199.745 70.4438 198.201 70.4438C196.601 70.4438 195.346 70.7942 194.437 71.4949C193.528 72.1957 192.889 72.9438 192.519 73.7392L189.337 72.6029C189.906 71.2771 190.663 70.2449 191.61 69.5063C192.567 68.7582 193.608 68.2374 194.735 67.9438C195.872 67.6408 196.989 67.4892 198.087 67.4892C198.788 67.4892 199.593 67.5745 200.502 67.7449C201.421 67.9059 202.306 68.2421 203.159 68.7535C204.02 69.2648 204.735 70.0366 205.303 71.0688C205.872 72.101 206.156 73.4836 206.156 75.2165V89.5915H202.803V86.637H202.633C202.406 87.1105 202.027 87.6171 201.497 88.1569C200.966 88.6966 200.261 89.1559 199.38 89.5347C198.499 89.9135 197.425 90.1029 196.156 90.1029ZM196.667 87.0915C197.993 87.0915 199.11 86.8311 200.019 86.3103C200.938 85.7894 201.629 85.1171 202.093 84.2932C202.567 83.4694 202.803 82.6029 202.803 81.6938V78.6256C202.661 78.7961 202.349 78.9523 201.866 79.0944C201.392 79.2269 200.843 79.3453 200.218 79.4495C199.603 79.5442 199.001 79.6294 198.414 79.7052C197.837 79.7714 197.368 79.8283 197.008 79.8756C196.137 79.9892 195.322 80.1739 194.565 80.4296C193.817 80.6758 193.211 81.0499 192.747 81.5517C192.292 82.0442 192.065 82.7165 192.065 83.5688C192.065 84.7336 192.496 85.6142 193.357 86.2108C194.229 86.798 195.332 87.0915 196.667 87.0915ZM221.763 67.7733V70.6142H210.456V67.7733H221.763ZM213.752 62.5461H217.104V83.3415C217.104 84.2885 217.241 84.9987 217.516 85.4722C217.8 85.9362 218.16 86.2487 218.595 86.4097C219.04 86.5612 219.509 86.637 220.002 86.637C220.371 86.637 220.674 86.618 220.911 86.5802C221.147 86.5328 221.337 86.4949 221.479 86.4665L222.161 89.4779C221.933 89.5631 221.616 89.6483 221.209 89.7336C220.802 89.8283 220.286 89.8756 219.661 89.8756C218.714 89.8756 217.786 89.672 216.877 89.2648C215.977 88.8576 215.229 88.2374 214.632 87.404C214.045 86.5707 213.752 85.5196 213.752 84.2506V62.5461ZM226.806 89.5915V67.7733H230.158V89.5915H226.806ZM228.51 64.137C227.857 64.137 227.293 63.9144 226.82 63.4694C226.356 63.0243 226.124 62.4892 226.124 61.8642C226.124 61.2392 226.356 60.7042 226.82 60.2591C227.293 59.8141 227.857 59.5915 228.51 59.5915C229.163 59.5915 229.722 59.8141 230.186 60.2591C230.66 60.7042 230.896 61.2392 230.896 61.8642C230.896 62.4892 230.66 63.0243 230.186 63.4694C229.722 63.9144 229.163 64.137 228.51 64.137ZM245.161 90.0461C243.192 90.0461 241.463 89.5773 239.977 88.6398C238.499 87.7023 237.344 86.3908 236.511 84.7052C235.687 83.0196 235.275 81.0499 235.275 78.7961C235.275 76.5233 235.687 74.5394 236.511 72.8444C237.344 71.1493 238.499 69.833 239.977 68.8955C241.463 67.958 243.192 67.4892 245.161 67.4892C247.131 67.4892 248.855 67.958 250.332 68.8955C251.819 69.833 252.974 71.1493 253.798 72.8444C254.631 74.5394 255.048 76.5233 255.048 78.7961C255.048 81.0499 254.631 83.0196 253.798 84.7052C252.974 86.3908 251.819 87.7023 250.332 88.6398C248.855 89.5773 247.131 90.0461 245.161 90.0461ZM245.161 87.0347C246.658 87.0347 247.889 86.6512 248.855 85.8841C249.82 85.1171 250.535 84.1086 250.999 82.8586C251.463 81.6086 251.695 80.2544 251.695 78.7961C251.695 77.3377 251.463 75.9788 250.999 74.7194C250.535 73.4599 249.82 72.4419 248.855 71.6654C247.889 70.8889 246.658 70.5006 245.161 70.5006C243.665 70.5006 242.434 70.8889 241.468 71.6654C240.502 72.4419 239.787 73.4599 239.323 74.7194C238.859 75.9788 238.627 77.3377 238.627 78.7961C238.627 80.2544 238.859 81.6086 239.323 82.8586C239.787 84.1086 240.502 85.1171 241.468 85.8841C242.434 86.6512 243.665 87.0347 245.161 87.0347ZM263.517 76.4665V89.5915H260.165V67.7733H263.404V71.1824H263.688C264.199 70.0745 264.976 69.1843 266.017 68.512C267.059 67.8302 268.404 67.4892 270.051 67.4892C271.529 67.4892 272.821 67.7923 273.929 68.3983C275.037 68.9949 275.899 69.904 276.514 71.1256C277.13 72.3377 277.438 73.8718 277.438 75.7279V89.5915H274.085V75.9552C274.085 74.2411 273.64 72.9059 272.75 71.9495C271.86 70.9836 270.638 70.5006 269.085 70.5006C268.015 70.5006 267.059 70.7326 266.216 71.1966C265.383 71.6607 264.725 72.3377 264.242 73.2279C263.759 74.118 263.517 75.1976 263.517 76.4665ZM293.677 63.6256V60.5006H315.495V63.6256H306.347V89.5915H302.825V63.6256H293.677ZM326.461 90.0461C324.359 90.0461 322.545 89.5821 321.021 88.654C319.506 87.7165 318.336 86.4097 317.512 84.7336C316.698 83.048 316.291 81.0877 316.291 78.8529C316.291 76.618 316.698 74.6483 317.512 72.9438C318.336 71.2298 319.482 69.8946 320.95 68.9381C322.427 67.9722 324.15 67.4892 326.12 67.4892C327.257 67.4892 328.379 67.6786 329.487 68.0574C330.595 68.4362 331.603 69.0517 332.512 69.904C333.421 70.7468 334.146 71.8642 334.686 73.2563C335.225 74.6483 335.495 76.3624 335.495 78.3983V79.8188H318.677V76.9211H332.086C332.086 75.69 331.84 74.5915 331.347 73.6256C330.864 72.6597 330.173 71.8974 329.274 71.3387C328.383 70.78 327.332 70.5006 326.12 70.5006C324.785 70.5006 323.63 70.8321 322.654 71.4949C321.688 72.1483 320.945 73.0006 320.424 74.0517C319.903 75.1029 319.643 76.2298 319.643 77.4324V79.3642C319.643 81.012 319.927 82.4088 320.495 83.5546C321.073 84.691 321.873 85.5574 322.896 86.154C323.918 86.7411 325.107 87.0347 326.461 87.0347C327.342 87.0347 328.137 86.9116 328.847 86.6654C329.567 86.4097 330.187 86.0309 330.708 85.529C331.229 85.0177 331.632 84.3832 331.916 83.6256L335.154 84.5347C334.813 85.6332 334.24 86.5991 333.436 87.4324C332.631 88.2563 331.636 88.9002 330.453 89.3642C329.269 89.8188 327.938 90.0461 326.461 90.0461ZM349.458 90.0461C347.413 90.0461 345.651 89.5631 344.174 88.5972C342.697 87.6313 341.561 86.3008 340.765 84.6057C339.97 82.9107 339.572 80.9741 339.572 78.7961C339.572 76.5802 339.979 74.6247 340.793 72.9296C341.617 71.225 342.763 69.8946 344.231 68.9381C345.708 67.9722 347.432 67.4892 349.401 67.4892C350.936 67.4892 352.318 67.7733 353.549 68.3415C354.78 68.9097 355.789 69.7052 356.575 70.7279C357.361 71.7506 357.848 72.9438 358.038 74.3074H354.686C354.43 73.3131 353.862 72.4324 352.981 71.6654C352.11 70.8889 350.936 70.5006 349.458 70.5006C348.151 70.5006 347.006 70.8415 346.021 71.5233C345.045 72.1957 344.283 73.1474 343.734 74.3785C343.194 75.6 342.924 77.0347 342.924 78.6824C342.924 80.368 343.189 81.8358 343.72 83.0858C344.259 84.3358 345.017 85.3065 345.992 85.9978C346.977 86.6891 348.132 87.0347 349.458 87.0347C350.329 87.0347 351.12 86.8832 351.83 86.5802C352.541 86.2771 353.142 85.8415 353.634 85.2733C354.127 84.7052 354.477 84.0233 354.686 83.2279H358.038C357.848 84.5158 357.38 85.6758 356.632 86.708C355.893 87.7307 354.913 88.5451 353.691 89.1512C352.479 89.7478 351.068 90.0461 349.458 90.0461ZM366.291 76.4665V89.5915H362.938V60.5006H366.291V71.1824H366.575C367.086 70.0555 367.853 69.1607 368.876 68.4978C369.908 67.8254 371.281 67.4892 372.995 67.4892C374.482 67.4892 375.784 67.7875 376.901 68.3841C378.019 68.9713 378.885 69.8756 379.501 71.0972C380.126 72.3093 380.438 73.8529 380.438 75.7279V89.5915H377.086V75.9552C377.086 74.2222 376.636 72.8822 375.737 71.9353C374.846 70.9788 373.611 70.5006 372.029 70.5006C370.931 70.5006 369.946 70.7326 369.075 71.1966C368.213 71.6607 367.531 72.3377 367.029 73.2279C366.537 74.118 366.291 75.1976 366.291 76.4665ZM389.923 76.4665V89.5915H386.571V67.7733H389.81V71.1824H390.094C390.605 70.0745 391.382 69.1843 392.423 68.512C393.465 67.8302 394.81 67.4892 396.458 67.4892C397.935 67.4892 399.227 67.7923 400.335 68.3983C401.443 68.9949 402.305 69.904 402.921 71.1256C403.536 72.3377 403.844 73.8718 403.844 75.7279V89.5915H400.492V75.9552C400.492 74.2411 400.047 72.9059 399.156 71.9495C398.266 70.9836 397.045 70.5006 395.492 70.5006C394.422 70.5006 393.465 70.7326 392.622 71.1966C391.789 71.6607 391.131 72.3377 390.648 73.2279C390.165 74.118 389.923 75.1976 389.923 76.4665ZM418.833 90.0461C416.864 90.0461 415.135 89.5773 413.649 88.6398C412.171 87.7023 411.016 86.3908 410.183 84.7052C409.359 83.0196 408.947 81.0499 408.947 78.7961C408.947 76.5233 409.359 74.5394 410.183 72.8444C411.016 71.1493 412.171 69.833 413.649 68.8955C415.135 67.958 416.864 67.4892 418.833 67.4892C420.803 67.4892 422.526 67.958 424.004 68.8955C425.49 69.833 426.646 71.1493 427.47 72.8444C428.303 74.5394 428.72 76.5233 428.72 78.7961C428.72 81.0499 428.303 83.0196 427.47 84.7052C426.646 86.3908 425.49 87.7023 424.004 88.6398C422.526 89.5773 420.803 90.0461 418.833 90.0461ZM418.833 87.0347C420.329 87.0347 421.561 86.6512 422.526 85.8841C423.492 85.1171 424.207 84.1086 424.671 82.8586C425.135 81.6086 425.367 80.2544 425.367 78.7961C425.367 77.3377 425.135 75.9788 424.671 74.7194C424.207 73.4599 423.492 72.4419 422.526 71.6654C421.561 70.8889 420.329 70.5006 418.833 70.5006C417.337 70.5006 416.106 70.8889 415.14 71.6654C414.174 72.4419 413.459 73.4599 412.995 74.7194C412.531 75.9788 412.299 77.3377 412.299 78.7961C412.299 80.2544 412.531 81.6086 412.995 82.8586C413.459 84.1086 414.174 85.1171 415.14 85.8841C416.106 86.6512 417.337 87.0347 418.833 87.0347ZM437.189 60.5006V89.5915H433.837V60.5006H437.189ZM452.193 90.0461C450.223 90.0461 448.495 89.5773 447.008 88.6398C445.531 87.7023 444.375 86.3908 443.542 84.7052C442.718 83.0196 442.306 81.0499 442.306 78.7961C442.306 76.5233 442.718 74.5394 443.542 72.8444C444.375 71.1493 445.531 69.833 447.008 68.8955C448.495 67.958 450.223 67.4892 452.193 67.4892C454.162 67.4892 455.886 67.958 457.363 68.8955C458.85 69.833 460.005 71.1493 460.829 72.8444C461.662 74.5394 462.079 76.5233 462.079 78.7961C462.079 81.0499 461.662 83.0196 460.829 84.7052C460.005 86.3908 458.85 87.7023 457.363 88.6398C455.886 89.5773 454.162 90.0461 452.193 90.0461ZM452.193 87.0347C453.689 87.0347 454.92 86.6512 455.886 85.8841C456.852 85.1171 457.567 84.1086 458.031 82.8586C458.495 81.6086 458.727 80.2544 458.727 78.7961C458.727 77.3377 458.495 75.9788 458.031 74.7194C457.567 73.4599 456.852 72.4419 455.886 71.6654C454.92 70.8889 453.689 70.5006 452.193 70.5006C450.696 70.5006 449.465 70.8889 448.499 71.6654C447.534 72.4419 446.819 73.4599 446.355 74.7194C445.891 75.9788 445.659 77.3377 445.659 78.7961C445.659 80.2544 445.891 81.6086 446.355 82.8586C446.819 84.1086 447.534 85.1171 448.499 85.8841C449.465 86.6512 450.696 87.0347 452.193 87.0347ZM476.003 98.2279C474.384 98.2279 472.992 98.0196 471.827 97.6029C470.662 97.1957 469.691 96.6559 468.915 95.9836C468.148 95.3207 467.537 94.6105 467.083 93.8529L469.753 91.9779C470.056 92.3756 470.44 92.8302 470.904 93.3415C471.368 93.8624 472.002 94.3122 472.807 94.691C473.621 95.0792 474.687 95.2733 476.003 95.2733C477.764 95.2733 479.218 94.8472 480.364 93.9949C481.51 93.1427 482.083 91.8074 482.083 89.9892V85.5574H481.798C481.552 85.9552 481.202 86.4476 480.747 87.0347C480.302 87.6124 479.658 88.1285 478.815 88.583C477.982 89.0281 476.855 89.2506 475.435 89.2506C473.673 89.2506 472.092 88.8339 470.69 88.0006C469.298 87.1673 468.195 85.9552 467.381 84.3642C466.576 82.7733 466.173 80.8415 466.173 78.5688C466.173 76.3339 466.566 74.3879 467.352 72.7307C468.138 71.0641 469.232 69.7762 470.634 68.8671C472.035 67.9485 473.654 67.4892 475.492 67.4892C476.912 67.4892 478.039 67.726 478.872 68.1995C479.715 68.6635 480.359 69.1938 480.804 69.7904C481.259 70.3775 481.609 70.8605 481.855 71.2392H482.196V67.7733H485.435V90.2165C485.435 92.0915 485.009 93.6161 484.156 94.7904C483.314 95.9741 482.177 96.8406 480.747 97.3898C479.327 97.9485 477.745 98.2279 476.003 98.2279ZM475.889 86.2392C477.234 86.2392 478.37 85.9315 479.298 85.316C480.226 84.7004 480.932 83.815 481.415 82.6597C481.898 81.5044 482.139 80.1218 482.139 78.512C482.139 76.94 481.903 75.5527 481.429 74.35C480.956 73.1474 480.255 72.2052 479.327 71.5233C478.399 70.8415 477.253 70.5006 475.889 70.5006C474.469 70.5006 473.285 70.8605 472.338 71.5802C471.401 72.2999 470.695 73.2658 470.222 74.4779C469.758 75.69 469.526 77.0347 469.526 78.512C469.526 80.0271 469.762 81.3671 470.236 82.5319C470.719 83.6872 471.429 84.5963 472.367 85.2591C473.314 85.9125 474.488 86.2392 475.889 86.2392ZM493.73 97.7733C493.162 97.7733 492.655 97.726 492.21 97.6313C491.765 97.5461 491.458 97.4608 491.287 97.3756L492.139 94.4211C492.954 94.6294 493.673 94.7052 494.298 94.6483C494.923 94.5915 495.477 94.3122 495.96 93.8103C496.453 93.3178 496.903 92.5177 497.31 91.4097L497.935 89.7052L489.867 67.7733H493.503L499.526 85.1597H499.753L505.776 67.7733H509.412L500.151 92.7733C499.734 93.9002 499.218 94.833 498.602 95.5716C497.987 96.3197 497.272 96.8737 496.458 97.2336C495.653 97.5934 494.744 97.7733 493.73 97.7733Z" fill="#4169E1"/>
</g>
<g filter="url(#filter1_d_16_2)">
<path d="M196.523 39V9.90909H206.693C208.72 9.90909 210.391 10.2595 211.707 10.9602C213.024 11.6515 214.004 12.5843 214.648 13.7585C215.292 14.9233 215.614 16.2159 215.614 17.6364C215.614 18.8864 215.391 19.9186 214.946 20.733C214.51 21.5473 213.933 22.1913 213.213 22.6648C212.503 23.1383 211.731 23.4886 210.898 23.7159V24C211.788 24.0568 212.683 24.3693 213.582 24.9375C214.482 25.5057 215.235 26.3201 215.841 27.3807C216.447 28.4413 216.75 29.7386 216.75 31.2727C216.75 32.7311 216.419 34.0426 215.756 35.2074C215.093 36.3722 214.046 37.2955 212.616 37.9773C211.187 38.6591 209.326 39 207.034 39H196.523ZM200.045 35.875H207.034C209.335 35.875 210.969 35.4299 211.935 34.5398C212.91 33.6402 213.398 32.5511 213.398 31.2727C213.398 30.2879 213.147 29.3788 212.645 28.5455C212.143 27.7027 211.428 27.0303 210.5 26.5284C209.572 26.017 208.473 25.7614 207.205 25.7614H200.045V35.875ZM200.045 22.6932H206.58C207.64 22.6932 208.597 22.4848 209.449 22.0682C210.311 21.6515 210.992 21.0644 211.494 20.3068C212.006 19.5492 212.261 18.6591 212.261 17.6364C212.261 16.358 211.816 15.2737 210.926 14.3835C210.036 13.4839 208.625 13.0341 206.693 13.0341H200.045V22.6932ZM228.504 39.5114C227.122 39.5114 225.867 39.2509 224.74 38.7301C223.613 38.1998 222.718 37.4375 222.055 36.4432C221.393 35.4394 221.061 34.2273 221.061 32.8068C221.061 31.5568 221.307 30.5436 221.8 29.767C222.292 28.9811 222.95 28.3655 223.774 27.9205C224.598 27.4754 225.507 27.1439 226.501 26.9261C227.505 26.6989 228.514 26.5189 229.527 26.3864C230.853 26.2159 231.928 26.0881 232.751 26.0028C233.585 25.9081 234.191 25.7519 234.57 25.5341C234.958 25.3163 235.152 24.9375 235.152 24.3977V24.2841C235.152 22.8826 234.768 21.7936 234.001 21.017C233.244 20.2405 232.093 19.8523 230.55 19.8523C228.949 19.8523 227.695 20.2027 226.786 20.9034C225.876 21.6042 225.237 22.3523 224.868 23.1477L221.686 22.0114C222.254 20.6856 223.012 19.6534 223.959 18.9148C224.915 18.1667 225.957 17.6458 227.084 17.3523C228.22 17.0492 229.338 16.8977 230.436 16.8977C231.137 16.8977 231.942 16.983 232.851 17.1534C233.769 17.3144 234.655 17.6506 235.507 18.1619C236.369 18.6733 237.084 19.4451 237.652 20.4773C238.22 21.5095 238.504 22.892 238.504 24.625V39H235.152V36.0455H234.982C234.754 36.5189 234.375 37.0256 233.845 37.5653C233.315 38.1051 232.609 38.5644 231.729 38.9432C230.848 39.322 229.773 39.5114 228.504 39.5114ZM229.016 36.5C230.341 36.5 231.459 36.2396 232.368 35.7188C233.286 35.1979 233.978 34.5256 234.442 33.7017C234.915 32.8778 235.152 32.0114 235.152 31.1023V28.0341C235.01 28.2045 234.697 28.3608 234.214 28.5028C233.741 28.6354 233.192 28.7538 232.567 28.858C231.951 28.9527 231.35 29.0379 230.763 29.1136C230.185 29.1799 229.716 29.2367 229.357 29.2841C228.485 29.3977 227.671 29.5824 226.913 29.8381C226.165 30.0843 225.559 30.4583 225.095 30.9602C224.641 31.4527 224.413 32.125 224.413 32.9773C224.413 34.142 224.844 35.0227 225.706 35.6193C226.577 36.2064 227.68 36.5 229.016 36.5ZM244.623 39V17.1818H247.975V39H244.623ZM246.327 13.5455C245.674 13.5455 245.111 13.3229 244.637 12.8778C244.173 12.4328 243.941 11.8977 243.941 11.2727C243.941 10.6477 244.173 10.1127 244.637 9.66761C245.111 9.22254 245.674 9 246.327 9C246.981 9 247.54 9.22254 248.004 9.66761C248.477 10.1127 248.714 10.6477 248.714 11.2727C248.714 11.8977 248.477 12.4328 248.004 12.8778C247.54 13.3229 246.981 13.5455 246.327 13.5455ZM257.467 9.90909V39H254.115V9.90909H257.467ZM272.755 39.4545C270.653 39.4545 268.839 38.9905 267.315 38.0625C265.799 37.125 264.63 35.8182 263.806 34.142C262.992 32.4564 262.585 30.4962 262.585 28.2614C262.585 26.0265 262.992 24.0568 263.806 22.3523C264.63 20.6383 265.776 19.303 267.244 18.3466C268.721 17.3807 270.444 16.8977 272.414 16.8977C273.55 16.8977 274.673 17.0871 275.781 17.4659C276.888 17.8447 277.897 18.4602 278.806 19.3125C279.715 20.1553 280.44 21.2727 280.979 22.6648C281.519 24.0568 281.789 25.7708 281.789 27.8068V29.2273H264.971V26.3295H278.38C278.38 25.0985 278.134 24 277.641 23.0341C277.158 22.0682 276.467 21.3059 275.567 20.7472C274.677 20.1884 273.626 19.9091 272.414 19.9091C271.079 19.9091 269.924 20.2405 268.948 20.9034C267.982 21.5568 267.239 22.4091 266.718 23.4602C266.197 24.5114 265.937 25.6383 265.937 26.8409V28.7727C265.937 30.4205 266.221 31.8172 266.789 32.9631C267.367 34.0994 268.167 34.9659 269.19 35.5625C270.212 36.1496 271.401 36.4432 272.755 36.4432C273.636 36.4432 274.431 36.3201 275.141 36.0739C275.861 35.8182 276.481 35.4394 277.002 34.9375C277.523 34.4261 277.925 33.7917 278.21 33.0341L281.448 33.9432C281.107 35.0417 280.534 36.0076 279.729 36.8409C278.924 37.6648 277.93 38.3087 276.746 38.7727C275.563 39.2273 274.232 39.4545 272.755 39.4545ZM288.384 47.1818C287.815 47.1818 287.309 47.1345 286.864 47.0398C286.419 46.9545 286.111 46.8693 285.94 46.7841L286.793 43.8295C287.607 44.0379 288.327 44.1136 288.952 44.0568C289.577 44 290.131 43.7206 290.614 43.2188C291.106 42.7263 291.556 41.9261 291.963 40.8182L292.588 39.1136L284.52 17.1818H288.156L294.179 34.5682H294.406L300.429 17.1818H304.065L294.804 42.1818C294.387 43.3087 293.871 44.2415 293.256 44.9801C292.64 45.7282 291.925 46.2822 291.111 46.642C290.306 47.0019 289.397 47.1818 288.384 47.1818ZM317.979 17.1818V20.0227H306.672V17.1818H317.979ZM309.967 11.9545H313.32V32.75C313.32 33.697 313.457 34.4072 313.732 34.8807C314.016 35.3447 314.375 35.6572 314.811 35.8182C315.256 35.9697 315.725 36.0455 316.217 36.0455C316.587 36.0455 316.89 36.0265 317.126 35.9886C317.363 35.9413 317.553 35.9034 317.695 35.875L318.376 38.8864C318.149 38.9716 317.832 39.0568 317.425 39.142C317.018 39.2367 316.501 39.2841 315.876 39.2841C314.929 39.2841 314.001 39.0805 313.092 38.6733C312.193 38.2661 311.445 37.6458 310.848 36.8125C310.261 35.9792 309.967 34.928 309.967 33.6591V11.9545ZM331.935 39.4545C329.832 39.4545 328.019 38.9905 326.494 38.0625C324.979 37.125 323.81 35.8182 322.986 34.142C322.171 32.4564 321.764 30.4962 321.764 28.2614C321.764 26.0265 322.171 24.0568 322.986 22.3523C323.81 20.6383 324.955 19.303 326.423 18.3466C327.901 17.3807 329.624 16.8977 331.594 16.8977C332.73 16.8977 333.852 17.0871 334.96 17.4659C336.068 17.8447 337.077 18.4602 337.986 19.3125C338.895 20.1553 339.619 21.2727 340.159 22.6648C340.699 24.0568 340.969 25.7708 340.969 27.8068V29.2273H324.151V26.3295H337.56C337.56 25.0985 337.313 24 336.821 23.0341C336.338 22.0682 335.647 21.3059 334.747 20.7472C333.857 20.1884 332.806 19.9091 331.594 19.9091C330.259 19.9091 329.103 20.2405 328.128 20.9034C327.162 21.5568 326.419 22.4091 325.898 23.4602C325.377 24.5114 325.116 25.6383 325.116 26.8409V28.7727C325.116 30.4205 325.401 31.8172 325.969 32.9631C326.546 34.0994 327.347 34.9659 328.369 35.5625C329.392 36.1496 330.58 36.4432 331.935 36.4432C332.815 36.4432 333.611 36.3201 334.321 36.0739C335.041 35.8182 335.661 35.4394 336.182 34.9375C336.703 34.4261 337.105 33.7917 337.389 33.0341L340.628 33.9432C340.287 35.0417 339.714 36.0076 338.909 36.8409C338.104 37.6648 337.11 38.3087 335.926 38.7727C334.742 39.2273 333.412 39.4545 331.935 39.4545ZM354.932 39.4545C352.886 39.4545 351.125 38.9716 349.648 38.0057C348.17 37.0398 347.034 35.7093 346.239 34.0142C345.443 32.3191 345.045 30.3826 345.045 28.2045C345.045 25.9886 345.453 24.0331 346.267 22.3381C347.091 20.6335 348.237 19.303 349.705 18.3466C351.182 17.3807 352.905 16.8977 354.875 16.8977C356.409 16.8977 357.792 17.1818 359.023 17.75C360.254 18.3182 361.262 19.1136 362.048 20.1364C362.834 21.1591 363.322 22.3523 363.511 23.7159H360.159C359.903 22.7216 359.335 21.8409 358.455 21.0739C357.583 20.2973 356.409 19.9091 354.932 19.9091C353.625 19.9091 352.479 20.25 351.494 20.9318C350.519 21.6042 349.757 22.5559 349.207 23.7869C348.668 25.0085 348.398 26.4432 348.398 28.0909C348.398 29.7765 348.663 31.2443 349.193 32.4943C349.733 33.7443 350.491 34.715 351.466 35.4062C352.451 36.0975 353.606 36.4432 354.932 36.4432C355.803 36.4432 356.594 36.2917 357.304 35.9886C358.014 35.6856 358.616 35.25 359.108 34.6818C359.6 34.1136 359.951 33.4318 360.159 32.6364H363.511C363.322 33.9242 362.853 35.0843 362.105 36.1165C361.366 37.1392 360.386 37.9536 359.165 38.5597C357.953 39.1562 356.542 39.4545 354.932 39.4545ZM371.764 25.875V39H368.412V9.90909H371.764V20.5909H372.048C372.56 19.464 373.327 18.5691 374.349 17.9062C375.382 17.2339 376.755 16.8977 378.469 16.8977C379.955 16.8977 381.258 17.196 382.375 17.7926C383.492 18.3797 384.359 19.2841 384.974 20.5057C385.599 21.7178 385.912 23.2614 385.912 25.1364V39H382.56V25.3636C382.56 23.6307 382.11 22.2907 381.21 21.3438C380.32 20.3873 379.084 19.9091 377.503 19.9091C376.404 19.9091 375.42 20.1411 374.548 20.6051C373.687 21.0691 373.005 21.7462 372.503 22.6364C372.01 23.5265 371.764 24.6061 371.764 25.875Z" fill="#4169E1"/>
</g>
<g filter="url(#filter2_d_16_2)">
<path d="M221.432 114.182C221.261 112.742 220.57 111.625 219.358 110.83C218.146 110.034 216.659 109.636 214.898 109.636C213.61 109.636 212.483 109.845 211.517 110.261C210.561 110.678 209.813 111.251 209.273 111.98C208.742 112.709 208.477 113.538 208.477 114.466C208.477 115.242 208.662 115.91 209.031 116.469C209.41 117.018 209.893 117.477 210.48 117.847C211.067 118.206 211.683 118.505 212.327 118.741C212.971 118.969 213.562 119.153 214.102 119.295L217.057 120.091C217.814 120.29 218.657 120.564 219.585 120.915C220.523 121.265 221.418 121.743 222.27 122.349C223.132 122.946 223.842 123.713 224.401 124.651C224.959 125.588 225.239 126.739 225.239 128.102C225.239 129.674 224.827 131.095 224.003 132.364C223.188 133.633 221.995 134.641 220.423 135.389C218.861 136.137 216.962 136.511 214.727 136.511C212.644 136.511 210.84 136.175 209.315 135.503C207.8 134.83 206.607 133.893 205.736 132.69C204.874 131.488 204.386 130.091 204.273 128.5H207.909C208.004 129.598 208.373 130.508 209.017 131.227C209.67 131.937 210.494 132.468 211.489 132.818C212.492 133.159 213.572 133.33 214.727 133.33C216.072 133.33 217.279 133.112 218.349 132.676C219.42 132.231 220.267 131.616 220.892 130.83C221.517 130.034 221.83 129.106 221.83 128.045C221.83 127.08 221.56 126.294 221.02 125.688C220.48 125.081 219.77 124.589 218.889 124.21C218.009 123.831 217.057 123.5 216.034 123.216L212.455 122.193C210.182 121.54 208.383 120.607 207.057 119.395C205.731 118.183 205.068 116.597 205.068 114.636C205.068 113.008 205.509 111.587 206.389 110.375C207.279 109.153 208.473 108.206 209.969 107.534C211.474 106.852 213.155 106.511 215.011 106.511C216.886 106.511 218.553 106.848 220.011 107.52C221.47 108.183 222.625 109.092 223.477 110.247C224.339 111.402 224.794 112.714 224.841 114.182H221.432ZM239.44 136.455C237.47 136.455 235.742 135.986 234.255 135.048C232.778 134.111 231.622 132.799 230.789 131.114C229.965 129.428 229.553 127.458 229.553 125.205C229.553 122.932 229.965 120.948 230.789 119.253C231.622 117.558 232.778 116.241 234.255 115.304C235.742 114.366 237.47 113.898 239.44 113.898C241.409 113.898 243.133 114.366 244.61 115.304C246.097 116.241 247.252 117.558 248.076 119.253C248.909 120.948 249.326 122.932 249.326 125.205C249.326 127.458 248.909 129.428 248.076 131.114C247.252 132.799 246.097 134.111 244.61 135.048C243.133 135.986 241.409 136.455 239.44 136.455ZM239.44 133.443C240.936 133.443 242.167 133.06 243.133 132.293C244.099 131.526 244.814 130.517 245.278 129.267C245.742 128.017 245.974 126.663 245.974 125.205C245.974 123.746 245.742 122.387 245.278 121.128C244.814 119.868 244.099 118.85 243.133 118.074C242.167 117.297 240.936 116.909 239.44 116.909C237.943 116.909 236.712 117.297 235.746 118.074C234.781 118.85 234.066 119.868 233.602 121.128C233.138 122.387 232.906 123.746 232.906 125.205C232.906 126.663 233.138 128.017 233.602 129.267C234.066 130.517 234.781 131.526 235.746 132.293C236.712 133.06 237.943 133.443 239.44 133.443ZM257.795 106.909V136H254.443V106.909H257.795ZM277.685 127.08V114.182H281.038V136H277.685V132.307H277.458C276.947 133.415 276.151 134.357 275.072 135.134C273.992 135.901 272.629 136.284 270.981 136.284C269.617 136.284 268.405 135.986 267.344 135.389C266.284 134.783 265.451 133.874 264.844 132.662C264.238 131.44 263.935 129.902 263.935 128.045V114.182H267.288V127.818C267.288 129.409 267.733 130.678 268.623 131.625C269.522 132.572 270.668 133.045 272.06 133.045C272.894 133.045 273.741 132.832 274.603 132.406C275.474 131.98 276.203 131.327 276.79 130.446C277.387 129.565 277.685 128.443 277.685 127.08ZM296.666 114.182V117.023H285.359V114.182H296.666ZM288.655 108.955H292.007V129.75C292.007 130.697 292.144 131.407 292.419 131.881C292.703 132.345 293.063 132.657 293.499 132.818C293.944 132.97 294.412 133.045 294.905 133.045C295.274 133.045 295.577 133.027 295.814 132.989C296.051 132.941 296.24 132.903 296.382 132.875L297.064 135.886C296.837 135.972 296.519 136.057 296.112 136.142C295.705 136.237 295.189 136.284 294.564 136.284C293.617 136.284 292.689 136.08 291.78 135.673C290.88 135.266 290.132 134.646 289.536 133.812C288.948 132.979 288.655 131.928 288.655 130.659V108.955ZM301.709 136V114.182H305.061V136H301.709ZM303.413 110.545C302.76 110.545 302.196 110.323 301.723 109.878C301.259 109.433 301.027 108.898 301.027 108.273C301.027 107.648 301.259 107.113 301.723 106.668C302.196 106.223 302.76 106 303.413 106C304.067 106 304.625 106.223 305.089 106.668C305.563 107.113 305.8 107.648 305.8 108.273C305.8 108.898 305.563 109.433 305.089 109.878C304.625 110.323 304.067 110.545 303.413 110.545ZM320.065 136.455C318.095 136.455 316.367 135.986 314.88 135.048C313.403 134.111 312.247 132.799 311.414 131.114C310.59 129.428 310.178 127.458 310.178 125.205C310.178 122.932 310.59 120.948 311.414 119.253C312.247 117.558 313.403 116.241 314.88 115.304C316.367 114.366 318.095 113.898 320.065 113.898C322.034 113.898 323.758 114.366 325.235 115.304C326.722 116.241 327.877 117.558 328.701 119.253C329.534 120.948 329.951 122.932 329.951 125.205C329.951 127.458 329.534 129.428 328.701 131.114C327.877 132.799 326.722 134.111 325.235 135.048C323.758 135.986 322.034 136.455 320.065 136.455ZM320.065 133.443C321.561 133.443 322.792 133.06 323.758 132.293C324.724 131.526 325.439 130.517 325.903 129.267C326.367 128.017 326.599 126.663 326.599 125.205C326.599 123.746 326.367 122.387 325.903 121.128C325.439 119.868 324.724 118.85 323.758 118.074C322.792 117.297 321.561 116.909 320.065 116.909C318.568 116.909 317.337 117.297 316.371 118.074C315.406 118.85 314.691 119.868 314.227 121.128C313.763 122.387 313.531 123.746 313.531 125.205C313.531 126.663 313.763 128.017 314.227 129.267C314.691 130.517 315.406 131.526 316.371 132.293C317.337 133.06 318.568 133.443 320.065 133.443ZM338.42 122.875V136H335.068V114.182H338.307V117.591H338.591C339.102 116.483 339.879 115.593 340.92 114.92C341.962 114.239 343.307 113.898 344.955 113.898C346.432 113.898 347.724 114.201 348.832 114.807C349.94 115.403 350.802 116.312 351.418 117.534C352.033 118.746 352.341 120.28 352.341 122.136V136H348.989V122.364C348.989 120.65 348.544 119.314 347.653 118.358C346.763 117.392 345.542 116.909 343.989 116.909C342.919 116.909 341.962 117.141 341.119 117.605C340.286 118.069 339.628 118.746 339.145 119.636C338.662 120.527 338.42 121.606 338.42 122.875ZM373.921 119.068L370.91 119.92C370.72 119.419 370.441 118.931 370.072 118.457C369.712 117.974 369.219 117.577 368.594 117.264C367.969 116.952 367.169 116.795 366.194 116.795C364.859 116.795 363.746 117.103 362.856 117.719C361.975 118.325 361.535 119.097 361.535 120.034C361.535 120.867 361.838 121.526 362.444 122.009C363.05 122.491 363.997 122.894 365.285 123.216L368.523 124.011C370.474 124.485 371.928 125.209 372.884 126.185C373.841 127.151 374.319 128.396 374.319 129.92C374.319 131.17 373.959 132.288 373.239 133.273C372.529 134.258 371.535 135.034 370.256 135.602C368.978 136.17 367.491 136.455 365.796 136.455C363.571 136.455 361.729 135.972 360.271 135.006C358.812 134.04 357.889 132.629 357.501 130.773L360.683 129.977C360.986 131.152 361.558 132.032 362.401 132.619C363.254 133.206 364.366 133.5 365.739 133.5C367.302 133.5 368.542 133.169 369.461 132.506C370.389 131.833 370.853 131.028 370.853 130.091C370.853 129.333 370.588 128.699 370.058 128.188C369.527 127.667 368.713 127.278 367.614 127.023L363.978 126.17C361.98 125.697 360.512 124.963 359.575 123.969C358.647 122.965 358.183 121.71 358.183 120.205C358.183 118.973 358.528 117.884 359.219 116.938C359.92 115.991 360.872 115.247 362.075 114.707C363.287 114.168 364.66 113.898 366.194 113.898C368.353 113.898 370.048 114.371 371.279 115.318C372.52 116.265 373.4 117.515 373.921 119.068Z" fill="#4169E1"/>
</g>
<path d="M10 169H2.81818V145.727H10.3182C12.5758 145.727 14.5076 146.193 16.1136 147.125C17.7197 148.049 18.9508 149.379 19.8068 151.114C20.6629 152.841 21.0909 154.909 21.0909 157.318C21.0909 159.742 20.6591 161.83 19.7955 163.58C18.9318 165.322 17.6742 166.663 16.0227 167.602C14.3712 168.534 12.3636 169 10 169ZM5.63636 166.5H9.81818C11.7424 166.5 13.3371 166.129 14.6023 165.386C15.8674 164.644 16.8106 163.587 17.4318 162.216C18.053 160.845 18.3636 159.212 18.3636 157.318C18.3636 155.439 18.0568 153.822 17.4432 152.466C16.8295 151.102 15.9129 150.057 14.6932 149.33C13.4735 148.595 11.9545 148.227 10.1364 148.227H5.63636V166.5ZM25.4545 169V151.545H28.1364V169H25.4545ZM26.8182 148.636C26.2955 148.636 25.8447 148.458 25.4659 148.102C25.0947 147.746 24.9091 147.318 24.9091 146.818C24.9091 146.318 25.0947 145.89 25.4659 145.534C25.8447 145.178 26.2955 145 26.8182 145C27.3409 145 27.7879 145.178 28.1591 145.534C28.5379 145.89 28.7273 146.318 28.7273 146.818C28.7273 147.318 28.5379 147.746 28.1591 148.102C27.7879 148.458 27.3409 148.636 26.8182 148.636ZM40.0938 175.909C38.7983 175.909 37.6847 175.742 36.7528 175.409C35.821 175.083 35.0445 174.652 34.4233 174.114C33.8097 173.583 33.321 173.015 32.9574 172.409L35.0938 170.909C35.3362 171.227 35.643 171.591 36.0142 172C36.3854 172.417 36.893 172.777 37.5369 173.08C38.1884 173.39 39.0407 173.545 40.0938 173.545C41.5028 173.545 42.6657 173.205 43.5824 172.523C44.4991 171.841 44.9574 170.773 44.9574 169.318V165.773H44.7301C44.5331 166.091 44.2528 166.485 43.8892 166.955C43.5331 167.417 43.018 167.83 42.3438 168.193C41.6771 168.549 40.7756 168.727 39.6392 168.727C38.2301 168.727 36.965 168.394 35.8438 167.727C34.7301 167.061 33.8475 166.091 33.196 164.818C32.5521 163.545 32.2301 162 32.2301 160.182C32.2301 158.394 32.5445 156.837 33.1733 155.511C33.8021 154.178 34.6771 153.148 35.7983 152.42C36.9195 151.686 38.215 151.318 39.6847 151.318C40.821 151.318 41.7225 151.508 42.3892 151.886C43.0634 152.258 43.5786 152.682 43.9347 153.159C44.2983 153.629 44.5786 154.015 44.7756 154.318H45.0483V151.545H47.6392V169.5C47.6392 171 47.2983 172.22 46.6165 173.159C45.9422 174.106 45.0331 174.799 43.8892 175.239C42.7528 175.686 41.4877 175.909 40.0938 175.909ZM40.0028 166.318C41.0786 166.318 41.9877 166.072 42.7301 165.58C43.4725 165.087 44.0369 164.379 44.4233 163.455C44.8097 162.53 45.0028 161.424 45.0028 160.136C45.0028 158.879 44.8134 157.769 44.4347 156.807C44.0559 155.845 43.4953 155.091 42.7528 154.545C42.0104 154 41.0938 153.727 40.0028 153.727C38.8665 153.727 37.9195 154.015 37.1619 154.591C36.4119 155.167 35.8475 155.939 35.4688 156.909C35.0975 157.879 34.9119 158.955 34.9119 160.136C34.9119 161.348 35.1013 162.42 35.4801 163.352C35.8665 164.277 36.4347 165.004 37.1847 165.534C37.9422 166.057 38.8816 166.318 40.0028 166.318ZM52.5483 169V151.545H55.2301V169H52.5483ZM53.9119 148.636C53.3892 148.636 52.9384 148.458 52.5597 148.102C52.1884 147.746 52.0028 147.318 52.0028 146.818C52.0028 146.318 52.1884 145.89 52.5597 145.534C52.9384 145.178 53.3892 145 53.9119 145C54.4347 145 54.8816 145.178 55.2528 145.534C55.6316 145.89 55.821 146.318 55.821 146.818C55.821 147.318 55.6316 147.746 55.2528 148.102C54.8816 148.458 54.4347 148.636 53.9119 148.636ZM67.733 151.545V153.818H58.6875V151.545H67.733ZM61.3239 147.364H64.0057V164C64.0057 164.758 64.1155 165.326 64.3352 165.705C64.5625 166.076 64.8504 166.326 65.1989 166.455C65.5549 166.576 65.9299 166.636 66.3239 166.636C66.6193 166.636 66.8617 166.621 67.0511 166.591C67.2405 166.553 67.392 166.523 67.5057 166.5L68.0511 168.909C67.8693 168.977 67.6155 169.045 67.2898 169.114C66.964 169.189 66.5511 169.227 66.0511 169.227C65.2936 169.227 64.5511 169.064 63.8239 168.739C63.1042 168.413 62.5057 167.917 62.0284 167.25C61.5587 166.583 61.3239 165.742 61.3239 164.727V147.364ZM76.9034 169.409C75.7973 169.409 74.7936 169.201 73.892 168.784C72.9905 168.36 72.2746 167.75 71.7443 166.955C71.214 166.152 70.9489 165.182 70.9489 164.045C70.9489 163.045 71.1458 162.235 71.5398 161.614C71.9337 160.985 72.4602 160.492 73.1193 160.136C73.7784 159.78 74.5057 159.515 75.3011 159.341C76.1042 159.159 76.911 159.015 77.7216 158.909C78.7822 158.773 79.642 158.67 80.3011 158.602C80.9678 158.527 81.4527 158.402 81.7557 158.227C82.0663 158.053 82.2216 157.75 82.2216 157.318V157.227C82.2216 156.106 81.9148 155.235 81.3011 154.614C80.6951 153.992 79.7746 153.682 78.5398 153.682C77.2595 153.682 76.2557 153.962 75.5284 154.523C74.8011 155.083 74.2898 155.682 73.9943 156.318L71.4489 155.409C71.9034 154.348 72.5095 153.523 73.267 152.932C74.0322 152.333 74.8655 151.917 75.767 151.682C76.6761 151.439 77.5701 151.318 78.4489 151.318C79.0095 151.318 79.6534 151.386 80.3807 151.523C81.1155 151.652 81.8239 151.92 82.5057 152.33C83.1951 152.739 83.767 153.356 84.2216 154.182C84.6761 155.008 84.9034 156.114 84.9034 157.5V169H82.2216V166.636H82.0852C81.9034 167.015 81.6004 167.42 81.1761 167.852C80.7519 168.284 80.1875 168.652 79.483 168.955C78.7784 169.258 77.9186 169.409 76.9034 169.409ZM77.3125 167C78.3731 167 79.267 166.792 79.9943 166.375C80.7292 165.958 81.2822 165.42 81.6534 164.761C82.0322 164.102 82.2216 163.409 82.2216 162.682V160.227C82.108 160.364 81.858 160.489 81.4716 160.602C81.0928 160.708 80.6534 160.803 80.1534 160.886C79.661 160.962 79.1799 161.03 78.7102 161.091C78.2481 161.144 77.8731 161.189 77.5852 161.227C76.8883 161.318 76.2367 161.466 75.6307 161.67C75.0322 161.867 74.5473 162.167 74.1761 162.568C73.8125 162.962 73.6307 163.5 73.6307 164.182C73.6307 165.114 73.9754 165.818 74.6648 166.295C75.3617 166.765 76.2443 167 77.3125 167ZM92.4801 145.727V169H89.7983V145.727H92.4801ZM100.074 145.727V169H97.392V145.727H100.074ZM106.713 175.545C106.259 175.545 105.853 175.508 105.497 175.432C105.141 175.364 104.895 175.295 104.759 175.227L105.44 172.864C106.092 173.03 106.668 173.091 107.168 173.045C107.668 173 108.111 172.777 108.497 172.375C108.891 171.981 109.251 171.341 109.577 170.455L110.077 169.091L103.622 151.545H106.531L111.349 165.455H111.531L116.349 151.545H119.259L111.849 171.545C111.516 172.447 111.103 173.193 110.611 173.784C110.118 174.383 109.546 174.826 108.895 175.114C108.251 175.402 107.524 175.545 106.713 175.545ZM132.162 169V145.727H146.207V148.227H134.98V156.091H145.48V158.591H134.98V166.5H146.389V169H132.162ZM150.923 169V151.545H153.514V154.273H153.741C154.105 153.341 154.692 152.617 155.503 152.102C156.313 151.58 157.287 151.318 158.423 151.318C159.575 151.318 160.533 151.58 161.298 152.102C162.071 152.617 162.673 153.341 163.105 154.273H163.287C163.734 153.371 164.404 152.655 165.298 152.125C166.192 151.587 167.264 151.318 168.514 151.318C170.075 151.318 171.351 151.807 172.344 152.784C173.336 153.754 173.832 155.265 173.832 157.318V169H171.151V157.318C171.151 156.03 170.798 155.11 170.094 154.557C169.389 154.004 168.56 153.727 167.605 153.727C166.378 153.727 165.427 154.098 164.753 154.841C164.079 155.576 163.741 156.508 163.741 157.636V169H161.014V157.045C161.014 156.053 160.692 155.254 160.048 154.648C159.404 154.034 158.575 153.727 157.56 153.727C156.863 153.727 156.211 153.913 155.605 154.284C155.007 154.655 154.522 155.17 154.151 155.83C153.787 156.481 153.605 157.235 153.605 158.091V169H150.923ZM178.736 175.545V151.545H181.327V154.318H181.645C181.842 154.015 182.115 153.629 182.463 153.159C182.819 152.682 183.327 152.258 183.986 151.886C184.652 151.508 185.554 151.318 186.69 151.318C188.16 151.318 189.455 151.686 190.577 152.42C191.698 153.155 192.573 154.197 193.202 155.545C193.83 156.894 194.145 158.485 194.145 160.318C194.145 162.167 193.83 163.769 193.202 165.125C192.573 166.473 191.702 167.519 190.588 168.261C189.474 168.996 188.19 169.364 186.736 169.364C185.615 169.364 184.717 169.178 184.043 168.807C183.368 168.428 182.849 168 182.486 167.523C182.122 167.038 181.842 166.636 181.645 166.318H181.418V175.545H178.736ZM181.372 160.273C181.372 161.591 181.565 162.754 181.952 163.761C182.338 164.761 182.902 165.545 183.645 166.114C184.387 166.674 185.296 166.955 186.372 166.955C187.493 166.955 188.429 166.659 189.179 166.068C189.937 165.47 190.505 164.667 190.884 163.659C191.27 162.644 191.463 161.515 191.463 160.273C191.463 159.045 191.274 157.939 190.895 156.955C190.524 155.962 189.959 155.178 189.202 154.602C188.452 154.019 187.509 153.727 186.372 153.727C185.281 153.727 184.365 154.004 183.622 154.557C182.88 155.102 182.319 155.867 181.94 156.852C181.562 157.83 181.372 158.97 181.372 160.273ZM205.327 169.364C203.751 169.364 202.368 168.989 201.179 168.239C199.997 167.489 199.073 166.439 198.406 165.091C197.747 163.742 197.418 162.167 197.418 160.364C197.418 158.545 197.747 156.958 198.406 155.602C199.073 154.246 199.997 153.193 201.179 152.443C202.368 151.693 203.751 151.318 205.327 151.318C206.902 151.318 208.281 151.693 209.463 152.443C210.652 153.193 211.577 154.246 212.236 155.602C212.902 156.958 213.236 158.545 213.236 160.364C213.236 162.167 212.902 163.742 212.236 165.091C211.577 166.439 210.652 167.489 209.463 168.239C208.281 168.989 206.902 169.364 205.327 169.364ZM205.327 166.955C206.524 166.955 207.509 166.648 208.281 166.034C209.054 165.42 209.626 164.614 209.997 163.614C210.368 162.614 210.554 161.53 210.554 160.364C210.554 159.197 210.368 158.11 209.997 157.102C209.626 156.095 209.054 155.28 208.281 154.659C207.509 154.038 206.524 153.727 205.327 153.727C204.13 153.727 203.145 154.038 202.372 154.659C201.599 155.28 201.027 156.095 200.656 157.102C200.285 158.11 200.099 159.197 200.099 160.364C200.099 161.53 200.285 162.614 200.656 163.614C201.027 164.614 201.599 165.42 202.372 166.034C203.145 166.648 204.13 166.955 205.327 166.955ZM220.69 169L215.372 151.545H218.19L221.963 164.909H222.145L225.872 151.545H228.736L232.418 164.864H232.599L236.372 151.545H239.19L233.872 169H231.236L227.418 155.591H227.145L223.327 169H220.69ZM249.46 169.364C247.778 169.364 246.328 168.992 245.108 168.25C243.896 167.5 242.96 166.455 242.301 165.114C241.65 163.765 241.324 162.197 241.324 160.409C241.324 158.621 241.65 157.045 242.301 155.682C242.96 154.311 243.877 153.242 245.051 152.477C246.233 151.705 247.612 151.318 249.188 151.318C250.097 151.318 250.994 151.47 251.881 151.773C252.767 152.076 253.574 152.568 254.301 153.25C255.028 153.924 255.608 154.818 256.04 155.932C256.472 157.045 256.688 158.417 256.688 160.045V161.182H243.233V158.864H253.96C253.96 157.879 253.763 157 253.369 156.227C252.983 155.455 252.43 154.845 251.71 154.398C250.998 153.951 250.157 153.727 249.188 153.727C248.119 153.727 247.195 153.992 246.415 154.523C245.642 155.045 245.047 155.727 244.631 156.568C244.214 157.409 244.006 158.311 244.006 159.273V160.818C244.006 162.136 244.233 163.254 244.688 164.17C245.15 165.08 245.79 165.773 246.608 166.25C247.426 166.72 248.377 166.955 249.46 166.955C250.165 166.955 250.801 166.856 251.369 166.659C251.945 166.455 252.441 166.152 252.858 165.75C253.275 165.341 253.597 164.833 253.824 164.227L256.415 164.955C256.142 165.833 255.684 166.606 255.04 167.273C254.396 167.932 253.6 168.447 252.653 168.818C251.706 169.182 250.642 169.364 249.46 169.364ZM260.767 169V151.545H263.358V154.182H263.54C263.858 153.318 264.434 152.617 265.267 152.08C266.1 151.542 267.04 151.273 268.085 151.273C268.282 151.273 268.528 151.277 268.824 151.284C269.119 151.292 269.343 151.303 269.494 151.318V154.045C269.403 154.023 269.195 153.989 268.869 153.943C268.551 153.89 268.214 153.864 267.858 153.864C267.009 153.864 266.252 154.042 265.585 154.398C264.926 154.746 264.403 155.231 264.017 155.852C263.638 156.466 263.449 157.167 263.449 157.955V169H260.767ZM272.673 169V151.545H275.355V169H272.673ZM274.037 148.636C273.514 148.636 273.063 148.458 272.685 148.102C272.313 147.746 272.128 147.318 272.128 146.818C272.128 146.318 272.313 145.89 272.685 145.534C273.063 145.178 273.514 145 274.037 145C274.56 145 275.007 145.178 275.378 145.534C275.757 145.89 275.946 146.318 275.946 146.818C275.946 147.318 275.757 147.746 275.378 148.102C275.007 148.458 274.56 148.636 274.037 148.636ZM282.949 158.5V169H280.267V151.545H282.858V154.273H283.085C283.494 153.386 284.116 152.674 284.949 152.136C285.782 151.591 286.858 151.318 288.176 151.318C289.358 151.318 290.392 151.561 291.278 152.045C292.165 152.523 292.854 153.25 293.347 154.227C293.839 155.197 294.085 156.424 294.085 157.909V169H291.403V158.091C291.403 156.72 291.047 155.652 290.335 154.886C289.623 154.114 288.646 153.727 287.403 153.727C286.547 153.727 285.782 153.913 285.108 154.284C284.441 154.655 283.915 155.197 283.528 155.909C283.142 156.621 282.949 157.485 282.949 158.5ZM306.031 175.909C304.736 175.909 303.622 175.742 302.69 175.409C301.759 175.083 300.982 174.652 300.361 174.114C299.747 173.583 299.259 173.015 298.895 172.409L301.031 170.909C301.274 171.227 301.58 171.591 301.952 172C302.323 172.417 302.83 172.777 303.474 173.08C304.126 173.39 304.978 173.545 306.031 173.545C307.44 173.545 308.603 173.205 309.52 172.523C310.437 171.841 310.895 170.773 310.895 169.318V165.773H310.668C310.471 166.091 310.19 166.485 309.827 166.955C309.471 167.417 308.955 167.83 308.281 168.193C307.615 168.549 306.713 168.727 305.577 168.727C304.168 168.727 302.902 168.394 301.781 167.727C300.668 167.061 299.785 166.091 299.134 164.818C298.49 163.545 298.168 162 298.168 160.182C298.168 158.394 298.482 156.837 299.111 155.511C299.74 154.178 300.615 153.148 301.736 152.42C302.857 151.686 304.152 151.318 305.622 151.318C306.759 151.318 307.66 151.508 308.327 151.886C309.001 152.258 309.516 152.682 309.872 153.159C310.236 153.629 310.516 154.015 310.713 154.318H310.986V151.545H313.577V169.5C313.577 171 313.236 172.22 312.554 173.159C311.88 174.106 310.971 174.799 309.827 175.239C308.69 175.686 307.425 175.909 306.031 175.909ZM305.94 166.318C307.016 166.318 307.925 166.072 308.668 165.58C309.41 165.087 309.974 164.379 310.361 163.455C310.747 162.53 310.94 161.424 310.94 160.136C310.94 158.879 310.751 157.769 310.372 156.807C309.993 155.845 309.433 155.091 308.69 154.545C307.948 154 307.031 153.727 305.94 153.727C304.804 153.727 303.857 154.015 303.099 154.591C302.349 155.167 301.785 155.939 301.406 156.909C301.035 157.879 300.849 158.955 300.849 160.136C300.849 161.348 301.039 162.42 301.418 163.352C301.804 164.277 302.372 165.004 303.122 165.534C303.88 166.057 304.819 166.318 305.94 166.318ZM325.849 145.727H329.077L335.531 156.591H335.804L342.259 145.727H345.486L337.077 159.409V169H334.259V159.409L325.849 145.727ZM353.389 169.364C351.813 169.364 350.431 168.989 349.241 168.239C348.06 167.489 347.135 166.439 346.469 165.091C345.81 163.742 345.48 162.167 345.48 160.364C345.48 158.545 345.81 156.958 346.469 155.602C347.135 154.246 348.06 153.193 349.241 152.443C350.431 151.693 351.813 151.318 353.389 151.318C354.965 151.318 356.344 151.693 357.526 152.443C358.715 153.193 359.639 154.246 360.298 155.602C360.965 156.958 361.298 158.545 361.298 160.364C361.298 162.167 360.965 163.742 360.298 165.091C359.639 166.439 358.715 167.489 357.526 168.239C356.344 168.989 354.965 169.364 353.389 169.364ZM353.389 166.955C354.586 166.955 355.571 166.648 356.344 166.034C357.116 165.42 357.688 164.614 358.06 163.614C358.431 162.614 358.616 161.53 358.616 160.364C358.616 159.197 358.431 158.11 358.06 157.102C357.688 156.095 357.116 155.28 356.344 154.659C355.571 154.038 354.586 153.727 353.389 153.727C352.192 153.727 351.207 154.038 350.435 154.659C349.662 155.28 349.09 156.095 348.719 157.102C348.348 158.11 348.162 159.197 348.162 160.364C348.162 161.53 348.348 162.614 348.719 163.614C349.09 164.614 349.662 165.42 350.435 166.034C351.207 166.648 352.192 166.955 353.389 166.955ZM376.392 161.864V151.545H379.074V169H376.392V166.045H376.21C375.801 166.932 375.165 167.686 374.301 168.307C373.438 168.92 372.347 169.227 371.028 169.227C369.938 169.227 368.968 168.989 368.119 168.511C367.271 168.027 366.604 167.299 366.119 166.33C365.634 165.352 365.392 164.121 365.392 162.636V151.545H368.074V162.455C368.074 163.727 368.43 164.742 369.142 165.5C369.862 166.258 370.778 166.636 371.892 166.636C372.559 166.636 373.237 166.466 373.926 166.125C374.623 165.784 375.206 165.261 375.676 164.557C376.153 163.852 376.392 162.955 376.392 161.864ZM383.986 169V151.545H386.577V154.182H386.759C387.077 153.318 387.652 152.617 388.486 152.08C389.319 151.542 390.259 151.273 391.304 151.273C391.501 151.273 391.747 151.277 392.043 151.284C392.338 151.292 392.562 151.303 392.713 151.318V154.045C392.622 154.023 392.414 153.989 392.088 153.943C391.77 153.89 391.433 153.864 391.077 153.864C390.228 153.864 389.471 154.042 388.804 154.398C388.145 154.746 387.622 155.231 387.236 155.852C386.857 156.466 386.668 157.167 386.668 157.955V169H383.986ZM417.983 151.545C417.847 150.394 417.294 149.5 416.324 148.864C415.354 148.227 414.165 147.909 412.756 147.909C411.725 147.909 410.824 148.076 410.051 148.409C409.286 148.742 408.688 149.201 408.256 149.784C407.831 150.367 407.619 151.03 407.619 151.773C407.619 152.394 407.767 152.928 408.062 153.375C408.366 153.814 408.752 154.182 409.222 154.477C409.691 154.765 410.184 155.004 410.699 155.193C411.214 155.375 411.688 155.523 412.119 155.636L414.483 156.273C415.089 156.432 415.763 156.652 416.506 156.932C417.256 157.212 417.972 157.595 418.653 158.08C419.343 158.557 419.911 159.17 420.358 159.92C420.805 160.67 421.028 161.591 421.028 162.682C421.028 163.939 420.699 165.076 420.04 166.091C419.388 167.106 418.434 167.913 417.176 168.511C415.926 169.11 414.407 169.409 412.619 169.409C410.953 169.409 409.509 169.14 408.29 168.602C407.078 168.064 406.123 167.314 405.426 166.352C404.737 165.39 404.347 164.273 404.256 163H407.165C407.241 163.879 407.536 164.606 408.051 165.182C408.574 165.75 409.233 166.174 410.028 166.455C410.831 166.727 411.695 166.864 412.619 166.864C413.695 166.864 414.661 166.689 415.517 166.341C416.373 165.985 417.051 165.492 417.551 164.864C418.051 164.227 418.301 163.485 418.301 162.636C418.301 161.864 418.085 161.235 417.653 160.75C417.222 160.265 416.653 159.871 415.949 159.568C415.244 159.265 414.483 159 413.665 158.773L410.801 157.955C408.983 157.432 407.544 156.686 406.483 155.716C405.422 154.746 404.892 153.477 404.892 151.909C404.892 150.606 405.244 149.47 405.949 148.5C406.661 147.523 407.616 146.765 408.812 146.227C410.017 145.682 411.362 145.409 412.847 145.409C414.347 145.409 415.68 145.678 416.847 146.216C418.013 146.746 418.938 147.473 419.619 148.398C420.309 149.322 420.672 150.371 420.71 151.545H417.983ZM425.298 169V151.545H427.889V154.273H428.116C428.48 153.341 429.067 152.617 429.878 152.102C430.688 151.58 431.662 151.318 432.798 151.318C433.95 151.318 434.908 151.58 435.673 152.102C436.446 152.617 437.048 153.341 437.48 154.273H437.662C438.109 153.371 438.779 152.655 439.673 152.125C440.567 151.587 441.639 151.318 442.889 151.318C444.45 151.318 445.726 151.807 446.719 152.784C447.711 153.754 448.207 155.265 448.207 157.318V169H445.526V157.318C445.526 156.03 445.173 155.11 444.469 154.557C443.764 154.004 442.935 153.727 441.98 153.727C440.753 153.727 439.802 154.098 439.128 154.841C438.454 155.576 438.116 156.508 438.116 157.636V169H435.389V157.045C435.389 156.053 435.067 155.254 434.423 154.648C433.779 154.034 432.95 153.727 431.935 153.727C431.238 153.727 430.586 153.913 429.98 154.284C429.382 154.655 428.897 155.17 428.526 155.83C428.162 156.481 427.98 157.235 427.98 158.091V169H425.298ZM458.247 169.409C457.141 169.409 456.137 169.201 455.236 168.784C454.334 168.36 453.618 167.75 453.088 166.955C452.558 166.152 452.293 165.182 452.293 164.045C452.293 163.045 452.49 162.235 452.884 161.614C453.277 160.985 453.804 160.492 454.463 160.136C455.122 159.78 455.849 159.515 456.645 159.341C457.448 159.159 458.255 159.015 459.065 158.909C460.126 158.773 460.986 158.67 461.645 158.602C462.312 158.527 462.796 158.402 463.099 158.227C463.41 158.053 463.565 157.75 463.565 157.318V157.227C463.565 156.106 463.259 155.235 462.645 154.614C462.039 153.992 461.118 153.682 459.884 153.682C458.603 153.682 457.599 153.962 456.872 154.523C456.145 155.083 455.634 155.682 455.338 156.318L452.793 155.409C453.247 154.348 453.853 153.523 454.611 152.932C455.376 152.333 456.209 151.917 457.111 151.682C458.02 151.439 458.914 151.318 459.793 151.318C460.353 151.318 460.997 151.386 461.724 151.523C462.459 151.652 463.168 151.92 463.849 152.33C464.539 152.739 465.111 153.356 465.565 154.182C466.02 155.008 466.247 156.114 466.247 157.5V169H463.565V166.636H463.429C463.247 167.015 462.944 167.42 462.52 167.852C462.096 168.284 461.531 168.652 460.827 168.955C460.122 169.258 459.262 169.409 458.247 169.409ZM458.656 167C459.717 167 460.611 166.792 461.338 166.375C462.073 165.958 462.626 165.42 462.997 164.761C463.376 164.102 463.565 163.409 463.565 162.682V160.227C463.452 160.364 463.202 160.489 462.815 160.602C462.437 160.708 461.997 160.803 461.497 160.886C461.005 160.962 460.524 161.03 460.054 161.091C459.592 161.144 459.217 161.189 458.929 161.227C458.232 161.318 457.58 161.466 456.974 161.67C456.376 161.867 455.891 162.167 455.52 162.568C455.156 162.962 454.974 163.5 454.974 164.182C454.974 165.114 455.319 165.818 456.009 166.295C456.705 166.765 457.588 167 458.656 167ZM473.824 145.727V169H471.142V145.727H473.824ZM481.418 145.727V169H478.736V145.727H481.418ZM495.693 169V145.727H503.83C505.451 145.727 506.788 146.008 507.841 146.568C508.894 147.121 509.678 147.867 510.193 148.807C510.708 149.739 510.966 150.773 510.966 151.909C510.966 152.909 510.788 153.735 510.432 154.386C510.083 155.038 509.621 155.553 509.045 155.932C508.477 156.311 507.86 156.591 507.193 156.773V157C507.905 157.045 508.621 157.295 509.341 157.75C510.061 158.205 510.663 158.856 511.148 159.705C511.633 160.553 511.875 161.591 511.875 162.818C511.875 163.985 511.61 165.034 511.08 165.966C510.549 166.898 509.712 167.636 508.568 168.182C507.424 168.727 505.936 169 504.102 169H495.693ZM498.511 166.5H504.102C505.943 166.5 507.25 166.144 508.023 165.432C508.803 164.712 509.193 163.841 509.193 162.818C509.193 162.03 508.992 161.303 508.591 160.636C508.189 159.962 507.617 159.424 506.875 159.023C506.133 158.614 505.254 158.409 504.239 158.409H498.511V166.5ZM498.511 155.955H503.739C504.587 155.955 505.352 155.788 506.034 155.455C506.723 155.121 507.269 154.652 507.67 154.045C508.08 153.439 508.284 152.727 508.284 151.909C508.284 150.886 507.928 150.019 507.216 149.307C506.504 148.587 505.375 148.227 503.83 148.227H498.511V155.955ZM527.142 161.864V151.545H529.824V169H527.142V166.045H526.96C526.551 166.932 525.915 167.686 525.051 168.307C524.188 168.92 523.097 169.227 521.778 169.227C520.688 169.227 519.718 168.989 518.869 168.511C518.021 168.027 517.354 167.299 516.869 166.33C516.384 165.352 516.142 164.121 516.142 162.636V151.545H518.824V162.455C518.824 163.727 519.18 164.742 519.892 165.5C520.612 166.258 521.528 166.636 522.642 166.636C523.309 166.636 523.987 166.466 524.676 166.125C525.373 165.784 525.956 165.261 526.426 164.557C526.903 163.852 527.142 162.955 527.142 161.864ZM547.099 155.455L544.69 156.136C544.539 155.735 544.315 155.345 544.02 154.966C543.732 154.58 543.338 154.261 542.838 154.011C542.338 153.761 541.698 153.636 540.918 153.636C539.849 153.636 538.959 153.883 538.247 154.375C537.543 154.86 537.19 155.477 537.19 156.227C537.19 156.894 537.433 157.42 537.918 157.807C538.402 158.193 539.16 158.515 540.19 158.773L542.781 159.409C544.342 159.788 545.505 160.367 546.27 161.148C547.035 161.92 547.418 162.917 547.418 164.136C547.418 165.136 547.13 166.03 546.554 166.818C545.986 167.606 545.19 168.227 544.168 168.682C543.145 169.136 541.955 169.364 540.599 169.364C538.819 169.364 537.346 168.977 536.179 168.205C535.012 167.432 534.274 166.303 533.963 164.818L536.509 164.182C536.751 165.121 537.209 165.826 537.884 166.295C538.565 166.765 539.455 167 540.554 167C541.804 167 542.796 166.735 543.531 166.205C544.274 165.667 544.645 165.023 544.645 164.273C544.645 163.667 544.433 163.159 544.009 162.75C543.584 162.333 542.933 162.023 542.054 161.818L539.145 161.136C537.546 160.758 536.372 160.17 535.622 159.375C534.88 158.572 534.509 157.568 534.509 156.364C534.509 155.379 534.785 154.508 535.338 153.75C535.899 152.992 536.66 152.398 537.622 151.966C538.592 151.534 539.69 151.318 540.918 151.318C542.645 151.318 544.001 151.697 544.986 152.455C545.978 153.212 546.683 154.212 547.099 155.455ZM551.455 169V151.545H554.136V169H551.455ZM552.818 148.636C552.295 148.636 551.845 148.458 551.466 148.102C551.095 147.746 550.909 147.318 550.909 146.818C550.909 146.318 551.095 145.89 551.466 145.534C551.845 145.178 552.295 145 552.818 145C553.341 145 553.788 145.178 554.159 145.534C554.538 145.89 554.727 146.318 554.727 146.818C554.727 147.318 554.538 147.746 554.159 148.102C553.788 148.458 553.341 148.636 552.818 148.636ZM561.73 158.5V169H559.048V151.545H561.639V154.273H561.866C562.276 153.386 562.897 152.674 563.73 152.136C564.563 151.591 565.639 151.318 566.957 151.318C568.139 151.318 569.173 151.561 570.06 152.045C570.946 152.523 571.635 153.25 572.128 154.227C572.62 155.197 572.866 156.424 572.866 157.909V169H570.185V158.091C570.185 156.72 569.829 155.652 569.116 154.886C568.404 154.114 567.427 153.727 566.185 153.727C565.329 153.727 564.563 153.913 563.889 154.284C563.223 154.655 562.696 155.197 562.31 155.909C561.923 156.621 561.73 157.485 561.73 158.5ZM585.085 169.364C583.403 169.364 581.953 168.992 580.733 168.25C579.521 167.5 578.585 166.455 577.926 165.114C577.275 163.765 576.949 162.197 576.949 160.409C576.949 158.621 577.275 157.045 577.926 155.682C578.585 154.311 579.502 153.242 580.676 152.477C581.858 151.705 583.237 151.318 584.812 151.318C585.722 151.318 586.619 151.47 587.506 151.773C588.392 152.076 589.199 152.568 589.926 153.25C590.653 153.924 591.233 154.818 591.665 155.932C592.097 157.045 592.312 158.417 592.312 160.045V161.182H578.858V158.864H589.585C589.585 157.879 589.388 157 588.994 156.227C588.608 155.455 588.055 154.845 587.335 154.398C586.623 153.951 585.782 153.727 584.812 153.727C583.744 153.727 582.82 153.992 582.04 154.523C581.267 155.045 580.672 155.727 580.256 156.568C579.839 157.409 579.631 158.311 579.631 159.273V160.818C579.631 162.136 579.858 163.254 580.312 164.17C580.775 165.08 581.415 165.773 582.233 166.25C583.051 166.72 584.002 166.955 585.085 166.955C585.79 166.955 586.426 166.856 586.994 166.659C587.57 166.455 588.066 166.152 588.483 165.75C588.9 165.341 589.222 164.833 589.449 164.227L592.04 164.955C591.767 165.833 591.309 166.606 590.665 167.273C590.021 167.932 589.225 168.447 588.278 168.818C587.331 169.182 586.267 169.364 585.085 169.364ZM608.756 155.455L606.347 156.136C606.195 155.735 605.972 155.345 605.676 154.966C605.388 154.58 604.994 154.261 604.494 154.011C603.994 153.761 603.354 153.636 602.574 153.636C601.506 153.636 600.616 153.883 599.903 154.375C599.199 154.86 598.847 155.477 598.847 156.227C598.847 156.894 599.089 157.42 599.574 157.807C600.059 158.193 600.816 158.515 601.847 158.773L604.438 159.409C605.998 159.788 607.161 160.367 607.926 161.148C608.691 161.92 609.074 162.917 609.074 164.136C609.074 165.136 608.786 166.03 608.21 166.818C607.642 167.606 606.847 168.227 605.824 168.682C604.801 169.136 603.612 169.364 602.256 169.364C600.475 169.364 599.002 168.977 597.835 168.205C596.669 167.432 595.93 166.303 595.619 164.818L598.165 164.182C598.407 165.121 598.866 165.826 599.54 166.295C600.222 166.765 601.112 167 602.21 167C603.46 167 604.453 166.735 605.188 166.205C605.93 165.667 606.301 165.023 606.301 164.273C606.301 163.667 606.089 163.159 605.665 162.75C605.241 162.333 604.589 162.023 603.71 161.818L600.801 161.136C599.203 160.758 598.028 160.17 597.278 159.375C596.536 158.572 596.165 157.568 596.165 156.364C596.165 155.379 596.441 154.508 596.994 153.75C597.555 152.992 598.316 152.398 599.278 151.966C600.248 151.534 601.347 151.318 602.574 151.318C604.301 151.318 605.657 151.697 606.642 152.455C607.634 153.212 608.339 154.212 608.756 155.455ZM625.474 155.455L623.065 156.136C622.914 155.735 622.69 155.345 622.395 154.966C622.107 154.58 621.713 154.261 621.213 154.011C620.713 153.761 620.073 153.636 619.293 153.636C618.224 153.636 617.334 153.883 616.622 154.375C615.918 154.86 615.565 155.477 615.565 156.227C615.565 156.894 615.808 157.42 616.293 157.807C616.777 158.193 617.535 158.515 618.565 158.773L621.156 159.409C622.717 159.788 623.88 160.367 624.645 161.148C625.41 161.92 625.793 162.917 625.793 164.136C625.793 165.136 625.505 166.03 624.929 166.818C624.361 167.606 623.565 168.227 622.543 168.682C621.52 169.136 620.33 169.364 618.974 169.364C617.194 169.364 615.721 168.977 614.554 168.205C613.387 167.432 612.649 166.303 612.338 164.818L614.884 164.182C615.126 165.121 615.584 165.826 616.259 166.295C616.94 166.765 617.83 167 618.929 167C620.179 167 621.171 166.735 621.906 166.205C622.649 165.667 623.02 165.023 623.02 164.273C623.02 163.667 622.808 163.159 622.384 162.75C621.959 162.333 621.308 162.023 620.429 161.818L617.52 161.136C615.921 160.758 614.747 160.17 613.997 159.375C613.255 158.572 612.884 157.568 612.884 156.364C612.884 155.379 613.16 154.508 613.713 153.75C614.274 152.992 615.035 152.398 615.997 151.966C616.967 151.534 618.065 151.318 619.293 151.318C621.02 151.318 622.376 151.697 623.361 152.455C624.353 153.212 625.058 154.212 625.474 155.455Z" fill="#9ED1FA"/>
<defs>
<filter id="filter0_d_16_2" x="65.1741" y="59.137" width="448.238" height="47.0909" filterUnits="userSpaceOnUse" color-interpolation-filters="sRGB">
<feFlood flood-opacity="0" result="BackgroundImageFix"/>
<feColorMatrix in="SourceAlpha" type="matrix" values="0 0 0 0 0 0 0 0 0 0 0 0 0 0 0 0 0 0 127 0" result="hardAlpha"/>
<feOffset dy="4"/>
<feGaussianBlur stdDeviation="2"/>
<feComposite in2="hardAlpha" operator="out"/>
<feColorMatrix type="matrix" values="0 0 0 0 0 0 0 0 0 0 0 0 0 0 0 0 0 0 0.25 0"/>
<feBlend mode="normal" in2="BackgroundImageFix" result="effect1_dropShadow_16_2"/>
<feBlend mode="normal" in="SourceGraphic" in2="effect1_dropShadow_16_2" result="shape"/>
</filter>
<filter id="filter1_d_16_2" x="192.523" y="9" width="197.389" height="46.1818" filterUnits="userSpaceOnUse" color-interpolation-filters="sRGB">
<feFlood flood-opacity="0" result="BackgroundImageFix"/>
<feColorMatrix in="SourceAlpha" type="matrix" values="0 0 0 0 0 0 0 0 0 0 0 0 0 0 0 0 0 0 127 0" result="hardAlpha"/>
<feOffset dy="4"/>
<feGaussianBlur stdDeviation="2"/>
<feComposite in2="hardAlpha" operator="out"/>
<feColorMatrix type="matrix" values="0 0 0 0 0 0 0 0 0 0 0 0 0 0 0 0 0 0 0.25 0"/>
<feBlend mode="normal" in2="BackgroundImageFix" result="effect1_dropShadow_16_2"/>
<feBlend mode="normal" in="SourceGraphic" in2="effect1_dropShadow_16_2" result="shape"/>
</filter>
<filter id="filter2_d_16_2" x="200.273" y="106" width="178.046" height="38.5114" filterUnits="userSpaceOnUse" color-interpolation-filters="sRGB">
<feFlood flood-opacity="0" result="BackgroundImageFix"/>
<feColorMatrix in="SourceAlpha" type="matrix" values="0 0 0 0 0 0 0 0 0 0 0 0 0 0 0 0 0 0 127 0" result="hardAlpha"/>
<feOffset dy="4"/>
<feGaussianBlur stdDeviation="2"/>
<feComposite in2="hardAlpha" operator="out"/>
<feColorMatrix type="matrix" values="0 0 0 0 0 0 0 0 0 0 0 0 0 0 0 0 0 0 0.25 0"/>
<feBlend mode="normal" in2="BackgroundImageFix" result="effect1_dropShadow_16_2"/>
<feBlend mode="normal" in="SourceGraphic" in2="effect1_dropShadow_16_2" result="shape"/>
</filter>
</defs>
</svg>
